<svg width="17" height="14" viewBox="0 0 17 14" fill="none" xmlns="http://www.w3.org/2000/svg">
<path d="M17 2.10651H16.347C16.1046 2.10651 15.7618 2.45072 15.7618 2.67109V10.6583C15.7618 10.8789 16.1046 11.1796 16.347 11.1796H17V13.0755H11.084V11.1796H12.3222V2.78361H12.2616L9.37004 13.0755H7.13138L4.27716 2.78361H4.20493V11.1796H5.44316V13.0755H0.490234V11.1796H1.12445C1.38564 11.1796 1.72847 10.8789 1.72847 10.6583V2.67109C1.72847 2.45072 1.38564 2.10651 1.12445 2.10651H0.490234V0.210636H6.68365L8.71706 7.65872H8.773L10.8252 0.210636H17V2.10651Z" fill="#757E9A"/>
</svg>
